<svg xmlns="http://www.w3.org/2000/svg" data-name="Layer 1" viewBox="0 0 512 512"><path fill="#2c2a2d" d="M220.64,167.28H247.2c2.46,0,3.5-2.62,3.5-5,0-2.78-1.27-5.18-3.5-5.18h-20V144.33h11.19c2.47,0,3.51-2.4,3.51-4.42,0-2.4-1.27-4.58-3.51-4.58H227.2V122.66h20c2.23,0,3.5-2.4,3.5-5.18,0-2.4-1-5-3.5-5H220.64c-2.54,0-5.07,1.2-5.07,3.6v47.62C215.57,166.08,218.1,167.28,220.64,167.28Zm55.87-9.75c-6.93,0-9.17-5.55-12.68-5.55-2.83,0-5.07,3.75-5.07,6.3,0,4.95,8.21,9.75,18,9.75,10.82,0,18.65-5.85,18.65-16.65,0-18.9-23.65-17.47-23.65-25,0-2.33,2.16-4.5,7.46-4.5,6.12,0,7.54,2.85,10.22,2.85,3.28,0,4.63-4.13,4.63-6.15,0-5.85-10.9-6.6-14.85-6.6-9.32,0-19.1,4.27-19.1,15.52,0,17.55,23.65,16,23.65,25.05C283.75,156.18,280,157.53,276.51,157.53ZM306.8,123h10.3v40.72c0,2.4,2.91,3.6,5.82,3.6s5.82-1.2,5.82-3.6V123H339c2.24,0,3.51-2.48,3.51-5.33,0-2.47-1.05-5.17-3.51-5.17H306.8c-2.46,0-3.5,2.7-3.5,5.17C303.3,120.48,304.57,123,306.8,123ZM172.37,167.28h16.56c8.43,0,15-4.27,15-16.12v-1.58c0-7.5-3.14-10.27-7.69-12,4-1.72,6.34-5.7,6.34-11.77,0-10.65-7.46-13.35-14.91-13.35h-15.3c-2.54,0-5.07,1.2-5.07,3.6v47.7C167.3,165.63,169.24,167.28,172.37,167.28Zm6.49-44.62h7.84c2.83,0,4.25,2.62,4.25,5.25s-1.42,5.17-4.25,5.17h-7.84Zm0,19.42h7.46c3.73,0,6,1.8,6,6.9v1.2c0,4.8-2.24,6.9-6,6.9h-7.46ZM173.5,253.5A7.5,7.5,0,1,0,181,261,7.5,7.5,0,0,0,173.5,253.5ZM161.67,421.73c10.29,0,18.35-4.8,18.35-17.7V384.16c0-12.9-8.06-17.7-18.35-17.7s-18.28,4.8-18.28,17.7V404C143.39,416.93,151.37,421.73,161.67,421.73ZM155,384.16c0-5.18,2.46-7.5,6.64-7.5s6.71,2.32,6.71,7.5V404c0,5.18-2.54,7.5-6.71,7.5S155,409.21,155,404Zm177.7,37.12c2.91,0,5.82-1.2,5.82-3.6V399.61h4.92l10.22,19.95a4,4,0,0,0,3.73,2.17c3.43,0,7.31-3.15,7.31-6.07a2.45,2.45,0,0,0-.37-1.35l-9.1-16.58c5.22-2,9-6.82,9-15.22,0-12.23-8.13-16.05-18.35-16.05H330.49a3.48,3.48,0,0,0-3.58,3.52v47.7C326.91,420.08,329.82,421.28,332.73,421.28Zm5.82-44.62h7.38c4.18,0,6.72,1.72,6.72,7s-2.54,7-6.72,7h-7.38ZM338.5,253.5A7.5,7.5,0,1,0,346,261,7.5,7.5,0,0,0,338.5,253.5ZM512,186a22.53,22.53,0,0,0-22.5-22.5H469.62a232.82,232.82,0,0,0-427.24,0H22.5A22.53,22.53,0,0,0,0,186q0,.52,0,1.05a4.71,4.71,0,0,0,0,.53V291a37.54,37.54,0,0,0,34.91,37.4l1.47,4.8c0,.1.06.2.1.3a232.83,232.83,0,0,0,439,.13l2.1-5.26A37.55,37.55,0,0,0,512,291V187.58a4.71,4.71,0,0,0,0-.53Q512,186.52,512,186ZM50.62,183.5a217.83,217.83,0,0,1,410.76,0q1.75,5,3.25,10H47.37C48.37,190.15,49.45,186.8,50.62,183.5Zm-33.41-2.81a7.44,7.44,0,0,1,5.29-2.19h14c-1.75,4.94-3.32,10-4.72,15H22.5a7.5,7.5,0,0,1-5.29-12.81ZM461.38,328.5a217.83,217.83,0,0,1-410.71.15l0-.15ZM497,291a22.52,22.52,0,0,1-22.5,22.5H37.5A22.52,22.52,0,0,1,15,291V207.21a22.46,22.46,0,0,0,7.5,1.29h467a22.46,22.46,0,0,0,7.5-1.29Zm-7.5-97.5h-9.26c-1.39-5-3-10.05-4.72-15h14a7.5,7.5,0,0,1,0,15ZM291.12,244l-18.35-2.67-8.2-16.62a9.55,9.55,0,0,0-17.13,0l-8.21,16.62L220.88,244a9.55,9.55,0,0,0-5.29,16.29l13.28,12.94-3.14,18.28a9.55,9.55,0,0,0,13.86,10.06L256,292.92l16.41,8.62a9.46,9.46,0,0,0,4.45,1.11,9.56,9.56,0,0,0,9.41-11.17l-3.14-18.28,13.28-12.94A9.55,9.55,0,0,0,291.12,244Zm-20.51,20.49a9.53,9.53,0,0,0-2.74,8.45l1.75,10.22-9.17-4.82a9.51,9.51,0,0,0-8.89,0l-9.18,4.82,1.75-10.21a9.54,9.54,0,0,0-2.74-8.46L234,257.23l10.26-1.49a9.55,9.55,0,0,0,7.18-5.23l4.59-9.29,4.59,9.29a9.55,9.55,0,0,0,7.19,5.23L278,257.23Zm15.57,156.82h26.55c2.47,0,3.51-2.62,3.51-5,0-2.78-1.27-5.18-3.51-5.18h-20V398.33h11.19c2.46,0,3.51-2.4,3.51-4.42,0-2.4-1.27-4.58-3.51-4.58H292.74V376.66h20c2.24,0,3.51-2.4,3.51-5.18,0-2.4-1-5-3.51-5H286.18c-2.54,0-5.08,1.2-5.08,3.6v47.62C281.1,420.08,283.64,421.28,286.18,421.28Zm-43.27,0c2.91,0,5.82-1.2,5.82-3.6V398.33H260c2.46,0,3.51-2.4,3.51-4.42,0-2.4-1.27-4.58-3.51-4.58H248.73V376.66h19.32c2.24,0,3.5-2.4,3.5-5.18,0-2.4-1-5-3.5-5H242.16c-2.54,0-5.07,1.2-5.07,3.6v47.62C237.09,420.08,240,421.28,242.91,421.28Zm-44,0c2.91,0,5.82-1.2,5.82-3.6V398.33H216c2.47,0,3.51-2.4,3.51-4.42,0-2.4-1.27-4.58-3.51-4.58H204.71V376.66H224c2.24,0,3.51-2.4,3.51-5.18,0-2.4-1-5-3.51-5H198.15c-2.54,0-5.08,1.2-5.08,3.6v47.62C193.07,420.08,196,421.28,198.89,421.28Z"/></svg>